<svg xmlns="http://www.w3.org/2000/svg" viewBox="0 0 267 40.329">
  <defs>
    <style>
      .cls-1 {
        fill: #a5c63b;
      }

      .cls-2 {
        fill: #fff;
      }
    </style>
  </defs>
  <g id="Gruppe_511" data-name="Gruppe 511" transform="translate(14796 201)">
    <path id="Pfad_274" data-name="Pfad 274" d="M111.595,44.989a13.995,13.995,0,1,1,5.791-26.748l-1.448,3.24A10.418,10.418,0,1,0,111.664,41.4a11.026,11.026,0,0,0,4.274-.9l1.448,3.24A13.878,13.878,0,0,1,111.595,44.989Z" transform="translate(-14826.315 -206.28)"/>
    <path id="Pfad_275" data-name="Pfad 275" class="cls-1" d="M13.1,33.118H4.55V44.769H0V17.4H18.476v3.654H4.55V29.4H13.1Z" transform="translate(-14796 -206.405)"/>
    <path id="Pfad_276" data-name="Pfad 276" class="cls-1" d="M26,29.5h2.62l8.617-12h5.377l-10,13.029L43.373,44.8H37.789L29.171,33.149H26" transform="translate(-14804.076 -206.436)"/>
    <path id="Pfad_277" data-name="Pfad 277" class="cls-1" d="M66.991,45.082a14.891,14.891,0,1,1,0-29.782v4.343a10.548,10.548,0,1,0,0,21.1,10.817,10.817,0,0,0,4.412-.965L73.2,43.7A13.828,13.828,0,0,1,66.991,45.082Z" transform="translate(-14812.183 -205.752)"/>
    <g id="Gruppe_507" data-name="Gruppe 507" transform="translate(-14706.448 -189.487)">
      <path id="Pfad_278" data-name="Pfad 278" d="M151.823,33.245a11.794,11.794,0,0,1-3.1,8.342,10.551,10.551,0,0,1-8.066,3.309,10.058,10.058,0,0,1-7.79-3.309,11.889,11.889,0,0,1-2.964-8.342V28.351a12.006,12.006,0,0,1,2.964-8.342,10.058,10.058,0,0,1,7.79-3.309,10.551,10.551,0,0,1,8.066,3.309,11.679,11.679,0,0,1,3.1,8.342Zm-3.654-4.964a9.376,9.376,0,0,0-2-6.136,6.862,6.862,0,0,0-5.446-2.413,6.408,6.408,0,0,0-5.17,2.413,9.342,9.342,0,0,0-1.93,6.136v4.895a9.41,9.41,0,0,0,1.93,6.2,6.408,6.408,0,0,0,5.17,2.413,6.766,6.766,0,0,0,5.446-2.413,9.082,9.082,0,0,0,2-6.2Z" transform="translate(-129.9 -16.7)"/>
      <path id="Pfad_279" data-name="Pfad 279" d="M190.351,44.669h-3.723L173.461,23.5l-.138.069v21.1H169.6V17.3h3.723L186.49,38.4l.138-.069V17.3h3.723Z" transform="translate(-142.231 -16.886)"/>
      <path id="Pfad_280" data-name="Pfad 280" d="M223.8,37.62a4.077,4.077,0,0,0-1.379-3.1,12.536,12.536,0,0,0-4.964-2.137,16.641,16.641,0,0,1-6.756-3.033,6.135,6.135,0,0,1-2.413-5.033,6.787,6.787,0,0,1,2.62-5.377,11.669,11.669,0,0,1,13.926.345A7.152,7.152,0,0,1,227.384,25l-.069.138H223.8a5.089,5.089,0,0,0-1.586-3.861,6.456,6.456,0,0,0-4.55-1.517,6.251,6.251,0,0,0-4.205,1.241,4.1,4.1,0,0,0-1.448,3.24A3.609,3.609,0,0,0,213.6,27.21a13.754,13.754,0,0,0,5.17,2.068,14.193,14.193,0,0,1,6.549,3.171,6.7,6.7,0,0,1,2.275,5.17,6.265,6.265,0,0,1-2.689,5.308,11.644,11.644,0,0,1-7.032,2,12.328,12.328,0,0,1-7.239-2.206,6.673,6.673,0,0,1-3.033-5.929l.069-.138h3.516a4.554,4.554,0,0,0,1.93,4,8.237,8.237,0,0,0,4.757,1.379,7.607,7.607,0,0,0,4.412-1.172A3.952,3.952,0,0,0,223.8,37.62Z" transform="translate(-154.033 -16.731)"/>
      <path id="Pfad_281" data-name="Pfad 281" d="M264.013,17.3V35.845a8.327,8.327,0,0,1-2.9,6.825,11.593,11.593,0,0,1-7.583,2.344,10.823,10.823,0,0,1-7.307-2.344,8.492,8.492,0,0,1-2.827-6.825V17.3h3.723V35.845a5.975,5.975,0,0,0,1.792,4.688,6.562,6.562,0,0,0,4.688,1.586,7.453,7.453,0,0,0,4.895-1.586,5.879,5.879,0,0,0,1.861-4.688V17.3Z" transform="translate(-165.154 -16.886)"/>
      <path id="Pfad_282" data-name="Pfad 282" d="M285.854,41.7h12.96v2.964H282.2V17.3h3.723V41.7Z" transform="translate(-177.206 -16.886)"/>
      <path id="Pfad_283" data-name="Pfad 283" d="M323.9,20.2h-8.824V44.669h-3.723V20.2H302.6V17.3h21.233v2.9Z" transform="translate(-183.543 -16.886)"/>
    </g>
    <circle id="Ellipse_18" data-name="Ellipse 18" class="cls-1" cx="13.029" cy="13.029" r="13.029" transform="translate(-14555.059 -201)"/>
    <g id="Gruppe_508" data-name="Gruppe 508" transform="translate(-14546.579 -193.624)">
      <path id="Pfad_284" data-name="Pfad 284" class="cls-2" d="M368.349,17.732h1.379v1.448h-1.379v2.413h-1.792V19.179h-4.688l-.069-1.1,4.688-7.376h1.861Zm-4.688,0h2.9V13.32h-.069l-.138.345Z" transform="translate(-361.8 -10.7)"/>
    </g>
  </g>
</svg>
