<?xml version="1.0" standalone="no"?>
<!DOCTYPE svg PUBLIC "-//W3C//DTD SVG 20010904//EN"
 "http://www.w3.org/TR/2001/REC-SVG-20010904/DTD/svg10.dtd">
<svg version="1.0" xmlns="http://www.w3.org/2000/svg"
 width="891.000000pt" height="689.000000pt" viewBox="0 0 891.000000 689.000000"
 preserveAspectRatio="xMidYMid meet">

<g transform="translate(0.000000,689.000000) scale(0.100000,-0.100000)"
fill="#000000" stroke="none">
<path d="M5220 6884 c-19 -2 -80 -9 -135 -15 -234 -25 -505 -86 -738 -165
-1012 -346 -1806 -1084 -2190 -2034 -81 -200 -105 -279 -87 -290 15 -9 109
-25 114 -19 2 2 22 65 45 139 166 526 460 1018 831 1391 520 521 1184 832
1945 910 164 17 515 14 690 -6 787 -86 1505 -424 2035 -954 155 -156 320 -346
320 -370 0 -6 4 -11 8 -11 11 0 112 -147 184 -265 271 -449 435 -938 490
-1465 15 -148 15 -522 0 -670 -107 -1025 -620 -1889 -1452 -2445 -418 -279
-863 -449 -1383 -527 -193 -29 -665 -32 -856 -5 -354 51 -670 144 -981 288
l-91 42 -44 -49 c-24 -27 -40 -52 -37 -56 13 -13 283 -117 394 -152 393 -122
689 -162 1130 -153 349 7 558 36 871 123 971 268 1810 944 2251 1812 469 925
497 1942 79 2902 -213 489 -571 967 -960 1281 -500 403 -1082 651 -1744 744
-108 16 -602 29 -689 19z"/>
<path d="M5262 6578 c-9 -9 -12 -74 -12 -230 l0 -218 26 -6 c38 -10 47 7 52
96 l5 80 56 0 c109 1 181 58 181 146 0 50 -31 100 -80 125 -41 23 -208 27
-228 7z m208 -83 c25 -23 27 -76 3 -98 -20 -17 -37 -20 -100 -18 l-43 1 0 71
0 71 60 -4 c39 -3 66 -11 80 -23z"/>
<path d="M4820 6547 c-48 -11 -55 -15 -58 -38 -3 -26 55 -406 64 -421 8 -13
50 -9 62 5 7 9 7 36 0 90 -6 42 -9 80 -6 83 3 3 30 6 61 7 64 2 91 -15 101
-65 11 -58 33 -80 74 -76 44 4 54 29 24 61 -11 12 -23 36 -26 52 -4 17 -19 42
-33 57 -24 25 -24 28 -9 49 20 30 21 101 1 140 -34 66 -119 84 -255 56z m170
-75 c48 -39 18 -105 -56 -122 -68 -16 -71 -14 -79 38 -3 26 -9 57 -12 69 -4
18 0 22 29 26 72 9 97 6 118 -11z"/>
<path d="M5757 6508 c-19 -29 -73 -119 -121 -200 -94 -157 -102 -188 -48 -188
22 0 33 10 55 46 l28 46 62 -7 c117 -13 114 -11 129 -74 11 -49 16 -56 39 -59
53 -6 52 9 -2 244 -28 120 -55 225 -61 232 -22 25 -48 12 -81 -40z m68 -236
c-5 -5 -105 9 -105 15 0 7 20 42 48 88 l26 40 17 -70 c10 -38 16 -71 14 -73z"/>
<path d="M4440 6447 c-90 -33 -116 -46 -118 -62 -1 -11 28 -108 65 -215 60
-171 71 -195 91 -198 23 -3 193 49 245 75 31 16 36 48 8 62 -14 8 -43 2 -119
-23 l-101 -34 -20 58 -19 59 66 22 c94 31 122 46 122 69 0 39 -32 41 -124 10
-62 -21 -88 -26 -91 -17 -14 38 -35 100 -35 102 0 2 42 17 94 35 99 33 120 47
114 77 -6 31 -56 25 -178 -20z"/>
<path d="M6153 6419 c-188 -93 -169 -349 32 -440 45 -21 164 -26 196 -9 21 12
25 45 7 57 -7 4 -44 8 -83 8 -81 0 -120 18 -169 78 -26 33 -31 47 -31 95 0 70
28 115 89 143 75 34 157 18 219 -44 71 -71 133 -28 67 47 -72 82 -230 113
-327 65z"/>
<path d="M4173 6324 c-5 -14 -1 -100 14 -287 l6 -79 -144 111 c-79 61 -149
111 -155 111 -20 0 -46 -38 -37 -53 4 -8 88 -77 186 -152 148 -114 182 -136
203 -131 29 8 28 0 13 261 -6 105 -15 200 -20 213 -10 26 -56 31 -66 6z"/>
<path d="M6575 6078 c-60 -95 -110 -182 -113 -194 -3 -15 3 -26 16 -33 29 -15
43 -7 75 44 29 45 36 49 98 60 l36 7 12 -119 c13 -116 29 -163 55 -163 40 0
41 46 9 261 l-5 36 98 18 c55 10 109 21 122 26 26 10 29 41 6 60 -13 11 -42 8
-177 -19 -88 -17 -162 -31 -163 -29 -2 1 20 38 47 82 56 90 61 128 18 133 -23
3 -35 -12 -134 -170z"/>
<path d="M3696 6044 c-9 -8 -16 -21 -16 -28 0 -6 41 -61 90 -120 50 -60 89
-110 88 -111 -2 -2 -84 15 -183 36 -98 22 -188 39 -200 37 -13 -2 -21 -12 -23
-29 -2 -21 23 -57 129 -183 115 -137 135 -157 158 -154 19 2 27 9 28 28 2 19
-20 51 -86 130 -49 58 -88 106 -87 108 2 1 90 -17 196 -40 186 -40 193 -41
206 -23 8 10 14 22 14 27 0 9 -246 307 -268 326 -20 16 -27 15 -46 -4z"/>
<path d="M7062 5988 c-21 -21 -13 -40 37 -87 l50 -46 -124 -135 c-128 -139
-144 -169 -104 -190 18 -10 28 -4 83 52 34 35 94 99 134 143 l71 80 44 -43
c28 -28 52 -42 69 -42 28 0 43 23 30 45 -13 24 -252 235 -265 235 -7 0 -18 -5
-25 -12z"/>
<path d="M5335 5844 c-597 -35 -1196 -287 -1630 -687 -41 -39 -47 -48 -35 -57
44 -30 59 -25 138 52 260 250 608 438 977 529 205 50 319 63 555 63 408 1 725
-71 1085 -248 272 -134 459 -268 649 -466 l107 -112 53 48 c30 27 54 52 55 56
1 4 -47 56 -106 115 -367 370 -885 621 -1418 687 -129 16 -333 25 -430 20z"/>
<path d="M3277 5673 c-4 -3 -7 -17 -7 -30 0 -17 26 -42 113 -108 112 -84 137
-113 137 -160 0 -81 -86 -151 -163 -131 -13 3 -71 42 -130 86 -110 83 -139 94
-157 61 -15 -29 -6 -41 82 -106 169 -126 200 -138 283 -115 94 26 155 108 155
207 0 87 -20 115 -151 215 -104 80 -144 100 -162 81z"/>
<path d="M7790 5323 c-25 -9 -51 -36 -90 -93 -85 -125 -252 -463 -400 -810
-130 -304 -245 -477 -454 -685 -92 -92 -137 -128 -188 -154 -113 -56 -190 -53
-244 12 -25 30 -26 35 -22 137 4 104 5 106 66 239 69 151 108 207 234 337 76
79 180 155 194 142 2 -3 -7 -35 -21 -72 -27 -72 -32 -125 -13 -144 19 -19 89
-14 126 8 45 28 76 98 76 175 1 72 -16 111 -64 143 -30 21 -44 23 -101 19
-114 -7 -232 -82 -349 -222 -70 -84 -161 -218 -200 -295 -38 -75 -184 -292
-260 -383 -75 -92 -182 -189 -237 -215 -32 -15 -34 -15 -55 5 -34 35 -36 112
-3 208 28 84 139 306 244 489 81 139 94 171 86 208 -9 38 -58 63 -108 54 -73
-14 -150 -124 -383 -550 -94 -171 -124 -217 -222 -332 -159 -189 -246 -253
-282 -209 -22 27 -6 167 30 270 43 122 195 429 269 543 34 51 61 101 61 111 0
48 -65 64 -135 32 -53 -24 -78 -55 -165 -203 -198 -337 -238 -400 -303 -488
-136 -182 -268 -296 -446 -385 -84 -42 -178 -57 -230 -35 -97 40 -75 222 68
572 76 186 106 244 134 262 12 8 146 53 297 101 378 119 479 159 458 180 -3 3
-124 -17 -269 -44 -283 -53 -379 -70 -379 -65 0 2 16 30 36 64 60 103 76 147
64 171 -14 26 -68 49 -114 49 -42 0 -61 -24 -155 -202 -35 -65 -66 -118 -69
-118 -36 0 -192 -35 -214 -48 -39 -23 -54 -63 -36 -98 16 -34 53 -45 109 -33
23 5 44 8 46 5 2 -2 -19 -77 -47 -167 -89 -285 -102 -343 -104 -459 -1 -95 2
-111 26 -163 24 -50 34 -61 75 -79 100 -44 284 2 455 115 115 76 269 228 360
357 84 118 113 153 103 125 -56 -151 -67 -195 -68 -265 -3 -134 58 -215 154
-207 114 10 211 96 378 335 62 90 114 162 116 160 1 -2 -2 -41 -7 -88 -18
-161 12 -242 99 -271 43 -14 120 -6 164 16 54 29 205 194 338 372 l20 28 1
-56 c0 -109 42 -184 123 -223 157 -76 302 -26 513 177 61 59 138 141 170 182
32 41 59 73 61 71 2 -1 -6 -38 -17 -81 -27 -107 -26 -146 6 -184 22 -27 98
-62 108 -50 1 2 31 91 65 198 34 106 66 190 70 185 4 -5 26 -35 50 -66 63 -84
161 -171 227 -204 74 -36 169 -44 243 -19 157 52 346 242 514 519 61 100 75
148 45 154 -13 2 -29 -14 -55 -58 -195 -320 -408 -524 -548 -524 -102 1 -198
85 -280 247 -56 110 -55 132 2 120 48 -10 158 -6 217 7 131 29 291 124 391
232 86 93 126 200 105 279 -22 81 -138 169 -223 169 -87 0 -243 -70 -394 -177
l-63 -44 14 33 c17 38 78 149 183 332 41 70 92 164 114 208 38 76 39 81 23 99
-17 19 -78 25 -114 12z m275 -568 c77 -76 -23 -239 -236 -385 -151 -104 -231
-135 -392 -154 l-49 -6 7 33 c22 115 142 270 297 388 174 130 319 179 373 124z"/>
<path d="M3635 4984 c-229 -33 -411 -88 -592 -179 -155 -79 -262 -156 -366
-264 -152 -159 -213 -282 -205 -415 6 -87 31 -139 94 -195 110 -96 198 -116
615 -136 338 -16 398 -26 484 -74 114 -64 124 -183 33 -366 -94 -187 -216
-298 -472 -429 -214 -110 -370 -145 -671 -153 -328 -8 -566 27 -820 122 -510
190 -944 613 -1200 1171 -54 118 -65 124 -65 39 0 -75 121 -330 245 -515 378
-566 936 -901 1600 -961 467 -42 948 108 1332 416 205 164 323 393 311 605
-10 164 -84 250 -258 300 -66 19 -113 23 -405 30 -399 11 -482 24 -574 90
-112 82 -99 222 37 399 158 206 474 367 809 412 94 12 245 7 305 -11 71 -21
130 -70 165 -138 38 -74 42 -126 14 -187 -29 -65 -77 -100 -174 -125 -101 -27
-112 -33 -103 -55 12 -31 111 -16 209 33 145 72 206 151 207 268 0 198 -145
310 -415 319 -60 2 -123 1 -140 -1z"/>
<path d="M5995 4828 c-31 -17 -94 -79 -116 -115 -30 -49 -3 -113 47 -113 31 0
50 31 69 115 9 39 23 80 31 92 8 12 14 25 14 28 0 8 -24 5 -45 -7z"/>
<path d="M5678 4761 c-58 -37 -118 -110 -118 -145 0 -26 39 -76 58 -76 28 0
53 40 71 113 11 43 26 89 35 102 23 36 5 38 -46 6z"/>
<path d="M151 4754 c-30 -8 -56 -16 -57 -17 -9 -8 -55 -188 -70 -272 -29 -155
-27 -526 4 -694 97 -537 408 -926 953 -1190 156 -76 368 -152 547 -196 l112
-27 48 20 c54 23 57 21 -83 56 -309 77 -612 217 -837 386 -128 96 -295 268
-369 380 -227 341 -315 760 -258 1225 9 73 46 251 55 267 10 16 322 -106 503
-197 329 -164 606 -383 770 -605 79 -106 173 -299 202 -410 12 -47 24 -130 26
-185 2 -55 6 -105 8 -111 3 -9 19 -8 62 0 l58 12 3 64 c7 143 -40 328 -125
493 -175 339 -558 650 -1064 866 -93 39 -357 132 -409 144 -14 3 -50 -1 -79
-9z"/>
<path d="M7352 3652 c-16 -17 -60 -89 -98 -160 l-69 -130 -75 -12 c-119 -18
-147 -28 -175 -61 -27 -33 -27 -58 4 -93 13 -15 26 -17 79 -13 34 2 62 3 62 0
0 -3 -28 -93 -62 -202 -53 -169 -69 -208 -117 -281 -107 -165 -219 -294 -321
-372 -50 -38 -71 -48 -95 -46 -26 3 -32 9 -44 48 -12 36 -12 55 -2 105 15 76
111 275 241 502 56 96 106 187 111 201 15 39 2 80 -31 97 -91 47 -160 -12
-308 -269 -222 -385 -265 -457 -322 -537 -121 -172 -239 -279 -308 -279 -26 0
-33 5 -38 26 -12 47 4 157 35 244 58 165 195 434 294 578 43 63 49 77 41 99
-20 58 -115 50 -182 -15 -44 -42 -410 -647 -414 -683 -2 -15 3 -24 13 -27 11
-2 38 29 84 98 37 55 69 100 71 100 2 0 -6 -24 -18 -52 -64 -160 -78 -286 -41
-370 29 -63 72 -90 134 -85 124 10 250 124 430 389 l70 103 -8 -65 c-13 -105
-8 -195 14 -232 10 -19 38 -43 63 -56 37 -19 55 -22 98 -17 30 3 68 13 85 21
46 24 163 148 269 285 l93 121 6 -89 c9 -149 57 -211 171 -220 115 -10 280 50
428 155 172 121 430 441 430 532 0 46 -23 23 -156 -160 -141 -193 -276 -310
-464 -405 -62 -32 -88 -39 -152 -43 -75 -4 -78 -4 -108 26 -28 28 -30 36 -30
100 0 102 36 232 125 447 45 109 112 246 128 262 7 6 136 50 288 97 302 93
467 150 483 166 18 18 -2 22 -61 12 -91 -16 -524 -92 -561 -98 l-33 -5 24 38
c46 73 88 165 85 185 -4 29 -45 56 -95 64 -39 6 -45 4 -71 -24z"/>
<path d="M5339 3111 c-168 -55 -334 -205 -504 -456 -218 -321 -247 -587 -73
-676 59 -30 123 -41 170 -28 72 19 179 135 343 369 48 69 91 129 96 135 24 25
-127 -423 -193 -576 -127 -291 -274 -470 -420 -510 -76 -20 -143 22 -192 119
-22 42 -46 43 -46 0 0 -74 69 -161 159 -201 93 -41 225 6 348 125 162 158 284
389 444 843 51 145 182 505 236 651 26 69 26 72 9 98 -23 36 -61 50 -100 36
-26 -9 -33 -8 -41 6 -5 10 -22 31 -36 47 -23 27 -34 31 -85 34 -38 2 -79 -3
-115 -16z m195 -97 c9 -3 16 -13 16 -20 0 -32 -283 -575 -358 -689 -124 -187
-232 -285 -313 -285 -61 0 -89 42 -89 134 0 115 77 280 224 476 208 279 409
427 520 384z"/>
<path d="M4085 2945 c-5 -2 -22 -6 -37 -9 -24 -5 -38 -28 -103 -154 -185 -366
-412 -671 -731 -982 -286 -279 -619 -517 -941 -675 -57 -28 -103 -52 -103 -55
-1 -50 124 -23 299 65 481 242 932 612 1286 1055 183 229 473 713 449 751 -5
8 -97 11 -119 4z"/>
<path d="M3405 2519 c-106 -11 -252 -50 -377 -99 -209 -83 -374 -187 -526
-334 -167 -161 -279 -310 -400 -531 -64 -117 -189 -423 -243 -593 -38 -123
-39 -123 75 -152 160 -41 251 -52 458 -57 288 -8 510 23 761 103 533 171 914
589 1126 1234 54 165 91 322 80 335 -11 11 -98 9 -131 -4 -20 -7 -27 -25 -51
-127 -61 -255 -167 -527 -277 -711 -211 -352 -524 -612 -855 -708 -250 -73
-589 -74 -915 -4 -128 28 -130 30 -119 77 12 54 120 343 170 454 153 341 383
638 639 827 99 74 298 173 390 195 36 9 102 18 145 21 44 4 104 14 133 23 43
13 52 20 50 37 -4 24 -22 26 -133 14z"/>
<path d="M7772 2181 c-8 -4 -12 -19 -10 -32 2 -20 24 -34 116 -78 61 -30 112
-57 112 -60 0 -4 -48 -17 -107 -30 -240 -51 -242 -52 -249 -73 -3 -12 0 -26 7
-33 22 -21 334 -165 357 -165 24 0 40 36 23 54 -7 6 -65 36 -129 66 l-117 56
175 38 c96 21 181 43 188 48 6 6 12 19 12 29 0 15 -38 37 -165 99 -189 90
-195 93 -213 81z"/>
<path d="M7411 2098 c-91 -152 -237 -335 -364 -454 -403 -384 -903 -606 -1454
-646 -389 -28 -827 57 -1159 225 l-51 26 -52 -53 -52 -53 102 -42 c137 -57
283 -104 420 -134 207 -46 269 -52 559 -52 242 1 290 3 403 23 263 47 482 119
722 237 329 161 603 371 832 639 84 98 224 292 239 330 4 10 -5 18 -33 25 -21
6 -43 11 -50 11 -6 0 -34 -37 -62 -82z"/>
<path d="M7537 1768 c-78 -98 -117 -156 -117 -176 0 -15 41 -51 153 -133 83
-62 161 -113 171 -113 22 -1 164 177 165 205 1 23 -25 42 -43 32 -8 -4 -38
-39 -67 -78 -29 -38 -53 -72 -55 -74 -3 -3 -94 60 -94 66 0 2 23 34 50 70 53
70 57 82 38 101 -22 22 -36 13 -84 -50 -26 -35 -51 -67 -55 -72 -10 -12 -100
54 -92 68 4 6 25 36 48 66 57 75 65 92 54 113 -16 27 -35 20 -72 -25z"/>
<path d="M7239 1414 c-49 -48 -89 -94 -89 -102 0 -13 246 -275 277 -295 17
-11 41 2 49 25 5 16 -7 34 -52 79 l-58 59 63 64 c50 51 62 68 56 85 -11 35
-43 24 -106 -36 l-60 -57 -39 39 -40 39 71 72 c74 75 86 106 41 112 -18 3 -44
-17 -113 -84z"/>
<path d="M7027 1223 c-16 -15 -3 -43 65 -146 79 -120 88 -155 52 -204 -11 -16
-37 -36 -58 -47 -32 -16 -44 -17 -77 -7 -33 10 -48 26 -115 122 -42 61 -83
113 -90 116 -17 6 -44 -14 -44 -34 0 -21 135 -217 166 -242 138 -109 358 42
301 207 -8 24 -46 88 -83 143 -50 73 -73 99 -89 99 -12 0 -25 -3 -28 -7z"/>
<path d="M6515 920 c-3 -5 -3 -104 1 -220 7 -218 11 -236 51 -228 14 3 19 15
21 61 l3 59 76 34 76 35 37 -36 c40 -39 65 -42 84 -12 9 15 -10 38 -140 167
-117 117 -156 150 -177 150 -14 0 -29 -4 -32 -10z m125 -165 c24 -24 42 -46
39 -48 -7 -5 -79 -37 -83 -37 -3 0 -6 29 -8 65 -1 36 -1 65 2 65 3 0 26 -20
50 -45z"/>
<path d="M6227 788 c-13 -18 -50 -75 -83 -125 -32 -51 -62 -93 -66 -93 -3 0
-15 39 -27 87 -20 85 -32 105 -60 100 -34 -6 -33 -32 16 -222 47 -186 49 -190
76 -193 35 -4 43 15 28 73 -10 41 -9 49 11 85 13 22 26 40 31 40 4 0 51 -32
103 -72 77 -58 99 -70 112 -61 39 24 25 46 -77 123 l-101 74 17 25 c9 15 36
56 60 92 47 70 49 99 7 99 -14 0 -32 -12 -47 -32z"/>
<path d="M4913 768 c-13 -18 -76 -359 -71 -389 3 -22 12 -26 113 -46 134 -27
154 -28 162 -7 15 39 -10 50 -168 78 l-36 6 11 56 10 56 50 -8 c28 -4 71 -8
96 -8 39 -1 45 2 48 21 4 27 -12 34 -111 53 l-69 13 7 36 c14 82 6 78 121 56
86 -16 114 -13 114 14 0 30 -19 38 -135 60 -129 25 -130 25 -142 9z"/>
<path d="M5300 720 c-11 -6 -17 -49 -27 -167 -18 -234 -17 -250 8 -258 40 -13
47 10 63 215 14 180 14 196 -1 208 -20 14 -23 15 -43 2z"/>
<path d="M5755 710 c-3 -6 -3 -70 0 -143 6 -128 6 -131 -12 -112 -10 12 -65
74 -122 138 -56 64 -108 117 -115 117 -6 0 -17 -4 -25 -9 -13 -8 -13 -37 -3
-207 7 -109 16 -202 21 -207 5 -5 19 -7 32 -5 l24 3 -4 138 c-2 75 -1 137 1
137 3 0 56 -58 117 -129 62 -71 119 -132 126 -135 7 -2 21 1 31 8 16 12 16 25
5 206 -7 107 -14 197 -17 202 -7 11 -52 10 -59 -2z"/>
</g>
</svg>
