<?xml version="1.0" encoding="UTF-8" standalone="no"?>
<!DOCTYPE svg PUBLIC "-//W3C//DTD SVG 1.1//EN" "http://www.w3.org/Graphics/SVG/1.1/DTD/svg11.dtd">
<svg width="100%" height="100%" viewBox="0 0 620 620" version="1.1" xmlns="http://www.w3.org/2000/svg" xmlns:xlink="http://www.w3.org/1999/xlink" xml:space="preserve" xmlns:serif="http://www.serif.com/" style="fill-rule:evenodd;clip-rule:evenodd;stroke-linejoin:round;stroke-miterlimit:2;">
    <g transform="matrix(1,0,0,1,-190,-190)">
        <circle cx="500" cy="500" r="220" style="fill:white;"/>
    </g>
    <g transform="matrix(1,0,0,1,-190,-190)">
        <path d="M445.7,467.2L400.5,467.2L400.5,513.9L377,513.9L377,399.6L451.4,399.6L451.4,418.7L400.5,418.7L400.5,448.2L445.7,448.2L445.7,467.2Z" style="fill:rgb(79,100,113);fill-rule:nonzero;"/>
        <path d="M512.7,505.2C507.1,512 499.4,515.4 489.5,515.4C480.4,515.4 473.4,512.8 468.7,507.6C463.9,502.4 461.5,494.7 461.4,484.6L461.4,428.9L484,428.9L484,483.8C484,492.7 488,497.1 496.1,497.1C503.8,497.1 509.1,494.4 512,489.1L512,428.9L534.8,428.9L534.8,513.8L513.5,513.8L512.7,505.2Z" style="fill:rgb(79,100,113);fill-rule:nonzero;"/>
        <path d="M622,464.3L576.8,464.3L576.8,494.9L629.9,494.9L629.9,513.8L553.3,513.8L553.3,399.6L629.8,399.6L629.8,418.7L576.9,418.7L576.9,445.9L622,445.9L622,464.3Z" style="fill:rgb(79,100,113);fill-rule:nonzero;"/>
    </g>
    <g transform="matrix(1,0,0,1,-190,-190)">
        <rect x="432.3" y="637.8" width="9.9" height="3.1" style="fill:rgb(230,35,92);fill-rule:nonzero;"/>
        <path d="M475.2,651.9L455.8,651.9L455.8,649.2L466.1,637.8C467.6,636.1 468.7,634.7 469.2,633.6C469.7,632.5 470.1,631.4 470.1,630.3C470.1,628.8 469.6,627.5 468.7,626.5C467.8,625.5 466.5,625 465,625C463.1,625 461.7,625.5 460.6,626.6C459.5,627.7 459,629.1 459,631L455.2,631C455.2,628.3 456.1,626.1 457.8,624.4C459.6,622.7 461.9,621.9 464.9,621.9C467.7,621.9 469.8,622.6 471.4,624.1C473,625.6 473.8,627.5 473.8,629.9C473.8,632.8 471.9,636.3 468.2,640.3L460.3,648.9L475.2,648.9L475.2,651.9Z" style="fill:rgb(230,35,92);fill-rule:nonzero;"/>
        <path d="M497.8,639.3C497.8,643.7 497,647 495.5,649.1C494,651.2 491.6,652.3 488.4,652.3C485.2,652.3 482.9,651.3 481.4,649.2C479.9,647.1 479.1,644 479,639.8L479,634.8C479,630.4 479.8,627.2 481.3,625.1C482.8,623 485.2,621.9 488.4,621.9C491.6,621.9 493.9,622.9 495.4,625C496.9,627 497.7,630.2 497.7,634.5L497.7,639.3L497.8,639.3ZM494.1,634.1C494.1,630.9 493.7,628.6 492.8,627.1C491.9,625.6 490.5,624.9 488.5,624.9C486.6,624.9 485.2,625.6 484.3,627.1C483.4,628.6 483,630.8 482.9,633.8L482.9,639.8C482.9,643 483.4,645.4 484.3,646.9C485.2,648.4 486.6,649.2 488.5,649.2C490.4,649.2 491.7,648.5 492.6,647C493.5,645.5 494,643.3 494,640.2L494,634.1L494.1,634.1Z" style="fill:rgb(230,35,92);fill-rule:nonzero;"/>
        <path d="M522.1,651.9L502.7,651.9L502.7,649.2L513,637.8C514.5,636.1 515.6,634.7 516.1,633.6C516.6,632.5 517,631.4 517,630.3C517,628.8 516.5,627.5 515.6,626.5C514.7,625.5 513.4,625 511.9,625C510,625 508.6,625.5 507.5,626.6C506.4,627.7 505.9,629.1 505.9,631L502.1,631C502.1,628.3 503,626.1 504.7,624.4C506.5,622.7 508.8,621.9 511.8,621.9C514.6,621.9 516.7,622.6 518.3,624.1C519.9,625.6 520.7,627.5 520.7,629.9C520.7,632.8 518.8,636.3 515.1,640.3L507.2,648.9L522.1,648.9L522.1,651.9Z" style="fill:rgb(230,35,92);fill-rule:nonzero;"/>
        <path d="M527.8,637.1L529.3,622.3L544.5,622.3L544.5,625.8L532.5,625.8L531.6,633.9C533.1,633 534.7,632.6 536.5,632.6C539.2,632.6 541.3,633.5 542.9,635.3C544.5,637.1 545.3,639.5 545.3,642.5C545.3,645.6 544.5,648 542.8,649.7C541.1,651.4 538.8,652.3 535.9,652.3C533.3,652.3 531.1,651.6 529.5,650.1C527.8,648.6 526.9,646.6 526.7,644.1L530.3,644.1C530.5,645.8 531.1,647.1 532.1,647.9C533.1,648.7 534.4,649.2 536,649.2C537.8,649.2 539.1,648.6 540.1,647.4C541.1,646.2 541.6,644.6 541.6,642.5C541.6,640.5 541.1,638.9 540,637.7C538.9,636.5 537.5,635.9 535.7,635.9C534.1,635.9 532.8,636.3 531.8,637L530.8,637.8L527.8,637.1Z" style="fill:rgb(230,35,92);fill-rule:nonzero;"/>
        <rect x="558.1" y="637.8" width="9.9" height="3.1" style="fill:rgb(230,35,92);fill-rule:nonzero;"/>
    </g>
    <g transform="matrix(1,0,0,1,-190,-190)">
        <path d="M498.2,415.4L465.5,382.7L481.7,366.5L498.2,383.1L533.4,347.9L549.6,364L498.2,415.4Z" style="fill:rgb(230,35,92);fill-rule:nonzero;"/>
    </g>
    <g id="bsfz-logo_00000175320318265131089600000007514270317274672016_" transform="matrix(1,0,0,1,-190,-270)">
        <path id="Pfad_1_00000155863605944043845680000018284187360033403036_" d="M478.4,618.9C474.7,618.8 471,619.5 467.6,620.9C464.7,622 462.1,624 460.2,626.5C458.5,628.9 457.6,631.7 457.6,634.6C457.6,640.5 460.8,645.1 467.2,648.6C470.3,650.2 473.5,651.5 476.8,652.5C480.8,653.8 483.6,655 485.2,656.2C486.8,657.4 487.6,659.3 487.5,661.3C487.6,663.2 486.7,664.9 485.2,666C483.7,667.1 481.5,667.7 478.7,667.7C471.3,667.7 467.6,664.6 467.6,658.4L455.9,658.4C455.8,661.8 456.8,665.2 458.7,668C460.7,670.9 463.6,673.2 466.8,674.5C470.5,676.1 474.6,676.9 478.6,676.9C484.8,676.9 489.8,675.5 493.5,672.7C497.1,670 499.2,665.7 499,661.2C499.1,657.1 497.5,653.1 494.5,650.2C491.5,647.3 486.7,644.8 480.1,642.8C477.2,642 474.5,640.9 472,639.3C470.2,638.1 469.2,636.5 469.2,634.7C469.2,632.8 470,631 471.6,630C473.2,628.8 475.4,628.2 478.2,628.2C481.1,628.2 483.4,628.9 485.1,630.3C486.8,631.8 487.7,634 487.5,636.3L499.1,636.3C499.1,633.1 498.2,629.9 496.5,627.2C494.7,624.5 492.1,622.3 489.2,621C485.8,619.6 482.1,618.8 478.4,618.9ZM407.7,619.7L407.7,676L429.6,676C436,676 440.9,674.5 444.4,671.7C447.9,668.9 449.6,664.8 449.6,659.4C449.7,656.5 448.8,653.7 447.1,651.3C445.4,649.1 443,647.6 440.3,646.9C442.7,646 444.8,644.4 446.2,642.3C447.6,640.1 448.4,637.6 448.3,635C448.3,629.9 446.5,626.1 443,623.5C439.5,620.9 434.3,619.6 427.4,619.6L407.7,619.7ZM419.3,629.1L427.4,629.1C430.6,629.1 432.9,629.7 434.4,630.8C435.9,631.9 436.6,633.8 436.6,636.3C436.6,640.9 433.7,643.2 427.8,643.3L419.2,643.3L419.3,629.1ZM419.3,651.5L429.9,651.5C435.2,651.6 437.9,654.2 437.9,659.4C438,661.5 437.2,663.5 435.6,664.8C434.1,666.1 431.9,666.8 429.2,666.8L419.2,666.8L419.3,651.5Z" style="fill:rgb(38,114,129);fill-rule:nonzero;"/>
        <path id="Pfad_2_00000085216937951597096810000011015847456171101324_" d="M592,626.3L592,619.6L549.7,619.6L549.7,629L577.5,629L549.6,669.1L549.6,675.9L592.5,675.9L592.5,666.6L564.1,666.6L592,626.3ZM541.5,643.6L519.2,643.6L519.2,629L544.3,629L544.3,619.6L507.6,619.6L507.6,676L519.2,676L519.2,653L541.5,653L541.5,643.6Z" style="fill:rgb(64,96,128);fill-rule:nonzero;"/>
    </g>
    <g transform="matrix(1,0,0,1,-190,-190)">
        <path d="M293,500C293,500 293,500.1 293,500C293,614.5 385.7,707.2 500.1,707.2C501.7,707.2 503.3,707.2 504.9,707.1L505.8,707.1C617.5,704.1 707.2,612.5 707.2,500.1C707.2,385.7 614.5,293 500.1,293C385.8,293 293.1,385.6 293,500Z" style="fill:none;fill-rule:nonzero;"/>
        <g>
            <path d="M500.1,807.4C500.1,807.4 497.8,807.3 494.2,807.2C496.2,807.3 498.1,807.4 500.1,807.4Z" style="fill:none;fill-rule:nonzero;"/>
            <path d="M500.1,193C577.6,193 577.6,292.8 500.1,292.8C614.5,292.8 707.2,385.7 707.2,500.1C707.2,611.7 619,702.6 508.6,707C507.7,707 506.8,707 505.9,707.1L504.8,707.1C503.2,707.1 499.5,707.3 499.4,707.3C424.6,707.9 422.9,802.2 494.2,807.2C497.8,807.4 500.1,807.4 500.1,807.4L500.1,807.3C669.8,807.3 807.3,669.8 807.3,500.1C807.3,330.5 669.8,193 500.1,193Z" style="fill:rgb(230,35,92);fill-rule:nonzero;"/>
            <path d="M494.3,807.2C423,802.3 424.7,707.9 499.5,707.3L500.1,707.3C385.7,707.3 293.1,614.6 293.1,500.2L293.1,500.1C293,422.6 193,421.6 193,499.2L193,500.2C193,669.9 330.5,807.4 500.2,807.4C498.1,807.4 496.2,807.3 494.3,807.2Z" style="fill:rgb(64,96,128);fill-rule:nonzero;"/>
        </g>
        <path d="M500.1,192.9C330.4,192.9 192.9,330.4 192.9,500.1C192.9,423.7 292.9,424.5 293,500.9C293,386.5 385.8,293 500.1,293C577.6,293 577.6,192.9 500.1,192.9Z" style="fill:rgb(38,114,129);fill-rule:nonzero;"/>
    </g>
</svg>
