<?xml version="1.0" encoding="UTF-8" standalone="no"?>
<!DOCTYPE svg PUBLIC "-//W3C//DTD SVG 1.1//EN" "http://www.w3.org/Graphics/SVG/1.1/DTD/svg11.dtd">
<svg width="100%" height="100%" viewBox="0 0 620 620" version="1.1" xmlns="http://www.w3.org/2000/svg" xmlns:xlink="http://www.w3.org/1999/xlink" xml:space="preserve" xmlns:serif="http://www.serif.com/" style="fill-rule:evenodd;clip-rule:evenodd;stroke-linejoin:round;stroke-miterlimit:2;">
    <g transform="matrix(1,0,0,1,-190,-190)">
        <g id="Ebene_1">
            <circle cx="500" cy="500" r="220" style="fill:white;"/>
            <g>
                <path d="M445.7,467.2L400.5,467.2L400.5,513.9L377,513.9L377,399.6L451.4,399.6L451.4,418.7L400.5,418.7L400.5,448.2L445.7,448.2L445.7,467.2Z" style="fill:rgb(78,100,113);fill-rule:nonzero;"/>
                <path d="M512.7,505.2C507.1,512 499.4,515.4 489.5,515.4C479.6,515.4 473.4,512.8 468.7,507.6C463.9,502.4 461.5,494.7 461.4,484.6L461.4,428.9L484,428.9L484,483.8C484,492.7 488,497.1 496.1,497.1C504.2,497.1 509.1,494.4 512,489.1L512,428.9L534.8,428.9L534.8,513.8L513.5,513.8L512.7,505.2Z" style="fill:rgb(78,100,113);fill-rule:nonzero;"/>
                <path d="M622,464.3L576.8,464.3L576.8,494.9L629.9,494.9L629.9,513.8L553.3,513.8L553.3,399.6L629.8,399.6L629.8,418.7L576.9,418.7L576.9,445.9L622,445.9L622,464.3Z" style="fill:rgb(78,100,113);fill-rule:nonzero;"/>
            </g>
            <g id="_-_2022_-">
                <g>
                    <rect x="432.3" y="637.8" width="9.9" height="3.1" style="fill:rgb(230,35,92);fill-rule:nonzero;"/>
                    <path d="M475.2,651.9L455.8,651.9L455.8,649.2L466.1,637.8C467.6,636.1 468.7,634.7 469.2,633.6C469.7,632.5 470.1,631.4 470.1,630.3C470.1,629.2 469.6,627.5 468.7,626.5C467.8,625.5 466.5,625 465,625C463.5,625 461.7,625.5 460.6,626.6C459.5,627.7 459,629.1 459,631L455.2,631C455.2,628.3 456.1,626.1 457.8,624.4C459.6,622.7 461.9,621.9 464.9,621.9C467.9,621.9 469.8,622.6 471.4,624.1C473,625.6 473.8,627.5 473.8,629.9C473.8,632.3 471.9,636.3 468.2,640.3L460.3,648.9L475.2,648.9L475.2,652L475.2,651.9Z" style="fill:rgb(230,35,92);fill-rule:nonzero;"/>
                    <path d="M497.8,639.3C497.8,643.7 497,647 495.5,649.1C494,651.2 491.6,652.3 488.4,652.3C485.2,652.3 482.9,651.3 481.4,649.2C479.9,647.1 479.1,644 479,639.8L479,634.8C479,630.4 479.8,627.2 481.3,625.1C482.8,623 485.2,621.9 488.4,621.9C491.6,621.9 493.9,622.9 495.4,625C496.9,627 497.7,630.2 497.7,634.5L497.7,639.4L497.8,639.3ZM494.1,634.1C494.1,630.9 493.7,628.6 492.8,627.1C491.9,625.6 490.5,624.9 488.5,624.9C486.5,624.9 485.2,625.6 484.3,627.1C483.4,628.6 483,630.8 482.9,633.8L482.9,639.8C482.9,643 483.4,645.4 484.3,646.9C485.2,648.4 486.6,649.2 488.5,649.2C490.4,649.2 491.7,648.5 492.6,647C493.5,645.5 494,643.3 494,640.2L494,634L494.1,634.1Z" style="fill:rgb(230,35,92);fill-rule:nonzero;"/>
                    <path d="M522.1,651.9L502.7,651.9L502.7,649.2L513,637.8C514.5,636.1 515.6,634.7 516.1,633.6C516.6,632.5 517,631.4 517,630.3C517,629.2 516.5,627.5 515.6,626.5C514.7,625.5 513.4,625 511.9,625C510.4,625 508.6,625.5 507.5,626.6C506.4,627.7 505.9,629.1 505.9,631L502.1,631C502.1,628.3 503,626.1 504.7,624.4C506.5,622.7 508.8,621.9 511.8,621.9C514.8,621.9 516.7,622.6 518.3,624.1C519.9,625.6 520.7,627.5 520.7,629.9C520.7,632.3 518.8,636.3 515.1,640.3L507.2,648.9L522.1,648.9L522.1,652L522.1,651.9Z" style="fill:rgb(230,35,92);fill-rule:nonzero;"/>
                    <path d="M540.8,622.3L540.8,625.5L540.1,625.5C537.2,625.5 534.8,626.4 533.1,628.1C531.4,629.8 530.4,632.2 530.1,635.2C531.7,633.4 533.8,632.5 536.5,632.5C539.2,632.5 541.1,633.4 542.7,635.2C544.2,637 545,639.4 545,642.2C545,645 544.2,647.7 542.5,649.5C540.8,651.3 538.6,652.2 535.8,652.2C533,652.2 530.7,651.1 528.9,648.9C527.1,646.7 526.3,643.9 526.3,640.5L526.3,639.1C526.3,633.6 527.5,629.5 529.8,626.6C532.1,623.7 535.6,622.2 540.2,622.2L540.9,622.2L540.8,622.3ZM535.9,635.6C534.6,635.6 533.4,636 532.3,636.8C531.2,637.6 530.5,638.5 530,639.7L530,641.1C530,643.5 530.5,645.5 531.6,647C532.7,648.5 534.1,649.2 535.7,649.2C537.3,649.2 538.7,648.6 539.7,647.3C540.7,646 541.2,644.4 541.2,642.4C541.2,640.4 540.7,638.7 539.7,637.5C538.7,636.2 537.4,635.6 535.8,635.6L535.9,635.6Z" style="fill:rgb(230,35,92);fill-rule:nonzero;"/>
                    <rect x="558.1" y="637.8" width="9.9" height="3.1" style="fill:rgb(230,35,92);fill-rule:nonzero;"/>
                </g>
            </g>
            <path d="M498.2,415.4L465.5,382.7L481.7,366.5L498.2,383.1L533.4,347.9L549.6,364L498.2,415.4Z" style="fill:rgb(230,35,92);fill-rule:nonzero;"/>
            <g id="bsfz-logo">
                <path id="Pfad_1" d="M478.4,538.9C474.7,538.9 471,539.5 467.6,540.9C464.7,542 462.1,544 460.2,546.5C458.5,548.9 457.6,551.7 457.6,554.6C457.6,560.5 460.8,565.1 467.2,568.6C470.3,570.2 473.5,571.5 476.8,572.5C480.8,573.8 483.6,575 485.2,576.2C486.8,577.4 487.6,579.3 487.5,581.3C487.6,583.2 486.7,584.9 485.2,586C483.7,587.1 481.5,587.7 478.7,587.7C471.3,587.7 467.6,584.6 467.6,578.4L455.9,578.4C455.8,581.8 456.8,585.2 458.7,588C460.7,590.9 463.6,593.2 466.8,594.5C470.5,596.1 474.6,596.9 478.6,596.9C484.8,596.9 489.8,595.5 493.5,592.7C497.1,590 499.2,585.7 499,581.2C499.1,577.1 497.5,573.1 494.5,570.2C491.5,567.3 486.7,564.8 480.1,562.8C477.2,562 474.5,560.9 472,559.3C470.2,558.1 469.2,556.5 469.2,554.7C469.2,552.9 470,551 471.6,550C473.2,548.8 475.4,548.2 478.2,548.2C481,548.2 483.4,548.9 485.1,550.3C486.8,551.8 487.7,554 487.5,556.3L499.1,556.3C499.1,553.1 498.2,549.9 496.5,547.2C494.7,544.5 492.1,542.3 489.2,541C485.8,539.6 482.1,538.8 478.4,538.9ZM407.7,539.6L407.7,596L429.6,596C436,596 440.9,594.5 444.4,591.7C447.9,588.9 449.6,584.8 449.6,579.4C449.7,576.5 448.8,573.7 447.1,571.3C445.4,569.1 443,567.6 440.3,566.9C442.7,566 444.8,564.4 446.2,562.3C447.6,560.1 448.4,557.6 448.3,555C448.3,549.9 446.5,546.1 443,543.5C439.5,540.9 434.3,539.6 427.4,539.6L407.7,539.6ZM419.2,549.1L427.4,549.1C430.6,549.1 432.9,549.7 434.4,550.8C435.9,551.9 436.6,553.8 436.6,556.3C436.6,560.9 433.7,563.2 427.8,563.3L419.2,563.3L419.2,549.1ZM419.2,571.5L429.9,571.5C435.2,571.5 437.9,574.2 437.9,579.4C438,581.5 437.2,583.5 435.6,584.8C434.1,586.1 431.9,586.8 429.2,586.8L419.2,586.8L419.2,571.5Z" style="fill:rgb(39,113,130);fill-rule:nonzero;"/>
                <path id="Pfad_2" d="M592,546.3L592,539.6L549.7,539.6L549.7,549L577.5,549L549.6,589.1L549.6,595.9L592.5,595.9L592.5,586.6L564.1,586.6L592,546.3ZM541.5,563.6L519.2,563.6L519.2,549L544.3,549L544.3,539.6L507.6,539.6L507.6,596L519.2,596L519.2,573L541.5,573L541.5,563.6Z" style="fill:rgb(64,96,128);fill-rule:nonzero;"/>
            </g>
            <g>
                <path d="M293,500C293,500 293,500.1 293,500C293,614.5 385.7,707.2 500.1,707.2C614.5,707.2 503.3,707.2 504.9,707.2L505.8,707.2C617.5,704.2 707.2,612.6 707.2,500.2C707.2,387.8 614.5,293.1 500.1,293.1C385.8,293.1 293.1,385.7 293,500.1L293,500Z" style="fill:none;fill-rule:nonzero;"/>
                <g>
                    <path d="M500.1,807.4C500.1,807.4 497.8,807.4 494.2,807.2C496.2,807.2 498.1,807.4 500.1,807.4Z" style="fill:none;fill-rule:nonzero;"/>
                    <path d="M500.1,193C577.6,193 577.6,292.8 500.1,292.8C614.5,292.8 707.2,385.7 707.2,500.1C707.2,614.5 619,702.6 508.6,707L504.8,707C503.2,707 499.5,707.2 499.4,707.2C424.6,707.8 422.9,802.1 494.2,807.1C497.8,807.3 500.1,807.3 500.1,807.3C669.8,807.3 807.3,669.7 807.3,500C807.3,330.3 669.8,192.9 500.1,192.9L500.1,193Z" style="fill:rgb(230,35,92);fill-rule:nonzero;"/>
                    <path d="M494.3,807.2C423,802.3 424.7,707.9 499.5,707.3L500.1,707.3C385.7,707.3 293.1,614.6 293.1,500.2C293,422.6 193,421.6 193,499.2L193,500.2C193,669.9 330.5,807.4 500.2,807.4C498.1,807.4 496.2,807.3 494.3,807.2Z" style="fill:rgb(64,96,128);fill-rule:nonzero;"/>
                </g>
                <path d="M500.1,192.9C330.4,192.9 192.9,330.4 192.9,500.1C192.9,423.7 292.9,424.5 293,500.9C293,386.5 385.8,293 500.1,293C614.4,293 577.6,192.9 500.1,192.9Z" style="fill:rgb(39,113,130);fill-rule:nonzero;"/>
            </g>
        </g>
    </g>
</svg>
